<svg width="16" height="15" viewBox="0 0 16 15" fill="none" xmlns="http://www.w3.org/2000/svg">
<g id="Facebook / Negative" clip-path="url(#clip0_1663_79)">
<path id="Vector" d="M16 7.45297C16 3.33681 12.4183 0 8 0C3.58172 0 0 3.33681 0 7.45297C0 11.1729 2.92547 14.2563 6.75 14.8154V9.60734H4.71875V7.45297H6.75V5.81099C6.75 3.94309 7.94438 2.91132 9.77172 2.91132C10.6467 2.91132 11.5625 3.05688 11.5625 3.05688V4.89101H10.5538C9.56 4.89101 9.25 5.46556 9.25 6.05554V7.45297H11.4688L11.1141 9.60734H9.25V14.8154C13.0745 14.2563 16 11.1729 16 7.45297Z" fill="#232536"/>
</g>
<defs>
<clipPath id="clip0_1663_79">
<rect width="16" height="14.9059" fill="white"/>
</clipPath>
</defs>
</svg>
