<svg width="16" height="15" viewBox="0 0 16 15" fill="none" xmlns="http://www.w3.org/2000/svg">
<g id="Instagram / Negative" clip-path="url(#clip0_1663_83)">
<g id="Group">
<path id="Vector" d="M8 1.34212C10.1375 1.34212 10.3906 1.35085 11.2313 1.38579C12.0125 1.41781 12.4344 1.54009 12.7156 1.64198C13.0875 1.7759 13.3563 1.93894 13.6344 2.19804C13.9156 2.46006 14.0875 2.70752 14.2313 3.05397C14.3406 3.31599 14.4719 3.71193 14.5063 4.43684C14.5438 5.2229 14.5531 5.45872 14.5531 7.44715C14.5531 9.43849 14.5438 9.6743 14.5063 10.4574C14.4719 11.1853 14.3406 11.5783 14.2313 11.8403C14.0875 12.1868 13.9125 12.4371 13.6344 12.6962C13.3531 12.9583 13.0875 13.1184 12.7156 13.2523C12.4344 13.3542 12.0094 13.4765 11.2313 13.5085C10.3875 13.5434 10.1344 13.5522 8 13.5522C5.8625 13.5522 5.60938 13.5434 4.76875 13.5085C3.9875 13.4765 3.56563 13.3542 3.28438 13.2523C2.9125 13.1184 2.64375 12.9554 2.36563 12.6962C2.08438 12.4342 1.9125 12.1868 1.76875 11.8403C1.65938 11.5783 1.52813 11.1824 1.49375 10.4574C1.45625 9.67139 1.44688 9.43557 1.44688 7.44715C1.44688 5.45581 1.45625 5.21999 1.49375 4.43684C1.52813 3.70902 1.65938 3.31599 1.76875 3.05397C1.9125 2.70752 2.0875 2.45715 2.36563 2.19804C2.64688 1.93602 2.9125 1.7759 3.28438 1.64198C3.56563 1.54009 3.99063 1.41781 4.76875 1.38579C5.60938 1.35085 5.8625 1.34212 8 1.34212ZM8 0C5.82813 0 5.55625 0.00873394 4.70313 0.0436697C3.85313 0.0786055 3.26875 0.206703 2.7625 0.390116C2.23438 0.582263 1.7875 0.835548 1.34375 1.25187C0.896875 1.66527 0.625 2.08159 0.41875 2.57069C0.221875 3.04524 0.084375 3.58674 0.046875 4.37862C0.009375 5.17632 0 5.4296 0 7.45297C0 9.47633 0.009375 9.72962 0.046875 10.5244C0.084375 11.3163 0.221875 11.8607 0.41875 12.3323C0.625 12.8243 0.896875 13.2407 1.34375 13.6541C1.7875 14.0675 2.23438 14.3237 2.75938 14.5129C3.26875 14.6963 3.85 14.8244 4.7 14.8594C5.55313 14.8943 5.825 14.903 7.99688 14.903C10.1688 14.903 10.4406 14.8943 11.2938 14.8594C12.1438 14.8244 12.7281 14.6963 13.2344 14.5129C13.7594 14.3237 14.2063 14.0675 14.65 13.6541C15.0938 13.2407 15.3688 12.8243 15.5719 12.3352C15.7688 11.8607 15.9063 11.3192 15.9438 10.5273C15.9813 9.73253 15.9906 9.47924 15.9906 7.45588C15.9906 5.43252 15.9813 5.17923 15.9438 4.38444C15.9063 3.59256 15.7688 3.04815 15.5719 2.57651C15.375 2.08159 15.1031 1.66527 14.6563 1.25187C14.2125 0.838459 13.7656 0.582263 13.2406 0.393028C12.7313 0.209615 12.15 0.0815168 11.3 0.046581C10.4438 0.00873395 10.1719 0 8 0Z" fill="#232536"/>
<path id="Vector_2" d="M8 3.625C5.73125 3.625 3.89062 5.33977 3.89062 7.45338C3.89062 9.567 5.73125 11.2818 8 11.2818C10.2687 11.2818 12.1094 9.567 12.1094 7.45338C12.1094 5.33977 10.2687 3.625 8 3.625ZM8 9.93673C6.52812 9.93673 5.33437 8.82461 5.33437 7.45338C5.33437 6.08215 6.52812 4.97003 8 4.97003C9.47187 4.97003 10.6656 6.08215 10.6656 7.45338C10.6656 8.82461 9.47187 9.93673 8 9.93673Z" fill="#232536"/>
<path id="Vector_3" d="M13.2313 3.47385C13.2313 3.96878 12.8 4.36763 12.2719 4.36763C11.7406 4.36763 11.3125 3.96587 11.3125 3.47385C11.3125 2.97893 11.7438 2.58008 12.2719 2.58008C12.8 2.58008 13.2313 2.98184 13.2313 3.47385Z" fill="#232536"/>
</g>
</g>
<defs>
<clipPath id="clip0_1663_83">
<rect width="16" height="14.9059" fill="white"/>
</clipPath>
</defs>
</svg>
