<svg width="16" height="16" viewBox="0 0 16 16" fill="none" xmlns="http://www.w3.org/2000/svg">
<g id="Twitter / Negative">
<path id="Vector" d="M5.03344 14.3529C11.0697 14.3529 14.3722 9.40146 14.3722 5.10893C14.3722 4.96973 14.3691 4.82744 14.3628 4.68824C15.0053 4.22836 15.5597 3.65873 16 3.00612C15.4017 3.26962 14.7664 3.44171 14.1159 3.51651C14.8009 3.11013 15.3137 2.47172 15.5594 1.71963C14.915 2.09761 14.2104 2.36425 13.4756 2.5081C12.9806 1.98741 12.326 1.64265 11.6131 1.52713C10.9003 1.4116 10.1688 1.53174 9.53183 1.86898C8.89486 2.20622 8.38787 2.74177 8.08923 3.39283C7.7906 4.04389 7.71695 4.7742 7.87969 5.47084C6.575 5.40603 5.29862 5.07055 4.13332 4.48614C2.96802 3.90173 1.9398 3.08144 1.11531 2.07845C0.696266 2.7936 0.568038 3.63985 0.756687 4.44522C0.945337 5.25059 1.43671 5.95464 2.13094 6.41429C1.60975 6.39791 1.09998 6.25901 0.64375 6.00907V6.04928C0.643283 6.79978 0.905399 7.52727 1.38554 8.1081C1.86568 8.68894 2.53422 9.08726 3.2775 9.23535C2.7947 9.36611 2.28799 9.38516 1.79656 9.29103C2.0063 9.93646 2.41438 10.501 2.96385 10.9058C3.51331 11.3106 4.17675 11.5355 4.86156 11.5491C3.69895 12.4531 2.26278 12.9434 0.784375 12.9411C0.522191 12.9407 0.260266 12.9248 0 12.8935C1.5019 13.8472 3.24902 14.3538 5.03344 14.3529Z" fill="#232536"/>
</g>
</svg>
